<?xml version="1.0" standalone="no"?>
<!DOCTYPE svg PUBLIC "-//W3C//DTD SVG 20010904//EN"
 "http://www.w3.org/TR/2001/REC-SVG-20010904/DTD/svg10.dtd">
<svg version="1.0" xmlns="http://www.w3.org/2000/svg"
 width="500.000000pt" height="500.000000pt" viewBox="0 0 500.000000 500.000000"
 preserveAspectRatio="xMidYMid meet">
<metadata>
Created by potrace 1.11, written by Peter Selinger 2001-2013
</metadata>
<g transform="translate(0.000000,500.000000) scale(0.100000,-0.100000)"
fill="#000000" stroke="none">
<path d="M1102 4949 c-201 -18 -299 -38 -430 -89 -174 -67 -385 -243 -490
-409 -64 -101 -121 -244 -142 -358 -5 -32 -12 -68 -14 -81 -3 -12 -9 -59 -13
-105 -10 -105 -11 -2762 0 -2885 18 -219 69 -392 158 -539 57 -94 206 -255
278 -301 15 -9 28 -19 31 -22 25 -29 177 -102 278 -134 l83 -26 1659 0 1659 0
82 26 c198 62 355 167 492 329 152 178 229 380 254 661 11 118 10 2808 0 2904
-11 100 -41 242 -67 320 -68 203 -219 393 -415 527 -164 111 -330 160 -615
182 -123 10 -2679 9 -2788 0z"/>
</g>
</svg>
